<mxfile host="app.diagrams.net" agent="Mozilla/5.0 (Macintosh; Intel Mac OS X 10_15_7) AppleWebKit/537.36 (KHTML, like Gecko) Chrome/132.0.0.0 Safari/537.36" version="26.0.11">
  <diagram name="Page-1" id="fk--v4Ps8Lt8dZppLK3Z">
    <mxGraphModel dx="673" dy="389" grid="1" gridSize="10" guides="1" tooltips="1" connect="1" arrows="1" fold="1" page="0" pageScale="1" pageWidth="827" pageHeight="1169" background="none" math="0" shadow="0">
      <root>
        <mxCell id="0" />
        <mxCell id="1" parent="0" />
        <mxCell id="EFBNCeIr_CWc5e86Vw2h-15" value="" style="rounded=0;whiteSpace=wrap;html=1;fillColor=none;" vertex="1" parent="1">
          <mxGeometry x="470" y="480" width="1020" height="430" as="geometry" />
        </mxCell>
        <mxCell id="LNFYNFp6tIIB9ON7b7Gi-68" value="-varÂ &#xa;enable_cert_validation=true" style="rounded=1;labelPosition=center;verticalLabelPosition=bottom;align=center;verticalAlign=top;fontStyle=1;fillColor=#CCCCFF;strokeWidth=3;strokeColor=#B266FF;whiteSpace=wrap;arcSize=4;fillOpacity=15;gradientColor=none;fillStyle=auto;strokeOpacity=100;" parent="1" vertex="1">
          <mxGeometry x="830" y="510" width="220" height="240" as="geometry" />
        </mxCell>
        <mxCell id="LNFYNFp6tIIB9ON7b7Gi-67" value="-var enable_route53_zone=true&#xa;" style="rounded=1;labelPosition=center;verticalLabelPosition=bottom;align=center;verticalAlign=top;fontStyle=1;fillColor=#CCCCFF;strokeWidth=3;strokeColor=#B266FF;whiteSpace=wrap;arcSize=4;gradientColor=none;gradientDirection=radial;fillStyle=solid;fillOpacity=15;" parent="1" vertex="1">
          <mxGeometry x="710" y="510" width="110" height="240" as="geometry" />
        </mxCell>
        <mxCell id="EFBNCeIr_CWc5e86Vw2h-2" value="terraform apply" style="rounded=1;labelPosition=center;verticalLabelPosition=bottom;align=center;verticalAlign=top;fontStyle=1;fillColor=#CCCCFF;strokeWidth=3;strokeColor=#B266FF;whiteSpace=wrap;arcSize=4;fillOpacity=15;gradientColor=none;fillStyle=auto;" vertex="1" parent="1">
          <mxGeometry x="1060" y="510" width="240" height="340" as="geometry" />
        </mxCell>
        <mxCell id="LNFYNFp6tIIB9ON7b7Gi-57" value="&lt;b&gt;Website code&lt;/b&gt;" style="sketch=0;outlineConnect=0;fontColor=#232F3E;gradientColor=none;fillColor=#232F3D;strokeColor=none;dashed=0;verticalLabelPosition=bottom;verticalAlign=top;align=center;html=1;fontSize=12;fontStyle=0;aspect=fixed;pointerEvents=1;shape=mxgraph.aws4.source_code;" parent="1" vertex="1">
          <mxGeometry x="1320" y="760" width="57" height="78" as="geometry" />
        </mxCell>
        <mxCell id="LNFYNFp6tIIB9ON7b7Gi-55" style="edgeStyle=orthogonalEdgeStyle;rounded=0;orthogonalLoop=1;jettySize=auto;html=1;" parent="1" source="LNFYNFp6tIIB9ON7b7Gi-57" target="LNFYNFp6tIIB9ON7b7Gi-53" edge="1">
          <mxGeometry relative="1" as="geometry">
            <Array as="points">
              <mxPoint x="1155.26" y="804" />
            </Array>
          </mxGeometry>
        </mxCell>
        <mxCell id="LNFYNFp6tIIB9ON7b7Gi-56" value="&lt;b&gt;&lt;font style=&quot;color: rgb(153, 153, 153);&quot;&gt;Hosted on&lt;/font&gt;&lt;/b&gt;" style="edgeLabel;html=1;align=center;verticalAlign=middle;resizable=0;points=[];labelBackgroundColor=none;labelBorderColor=none;" parent="LNFYNFp6tIIB9ON7b7Gi-55" vertex="1" connectable="0">
          <mxGeometry x="-0.0863" y="1" relative="1" as="geometry">
            <mxPoint y="7" as="offset" />
          </mxGeometry>
        </mxCell>
        <mxCell id="LNFYNFp6tIIB9ON7b7Gi-59" value="&lt;b style=&quot;color: rgb(35, 47, 62); text-wrap-mode: nowrap;&quot;&gt;S3 Webhosting&lt;/b&gt;" style="text;html=1;align=center;verticalAlign=middle;whiteSpace=wrap;rounded=0;" parent="1" vertex="1">
          <mxGeometry x="1104.77" y="510" width="100" height="30" as="geometry" />
        </mxCell>
        <mxCell id="LNFYNFp6tIIB9ON7b7Gi-39" style="edgeStyle=orthogonalEdgeStyle;rounded=0;orthogonalLoop=1;jettySize=auto;html=1;fontColor=#666666;" parent="1" source="LNFYNFp6tIIB9ON7b7Gi-41" target="LNFYNFp6tIIB9ON7b7Gi-53" edge="1">
          <mxGeometry relative="1" as="geometry">
            <Array as="points">
              <mxPoint x="1226.26" y="581" />
              <mxPoint x="1226.26" y="755" />
            </Array>
          </mxGeometry>
        </mxCell>
        <mxCell id="LNFYNFp6tIIB9ON7b7Gi-40" value="&lt;b style=&quot;color: rgb(153, 153, 153);&quot;&gt;Redirect to&lt;/b&gt;" style="edgeLabel;html=1;align=center;verticalAlign=middle;resizable=0;points=[];labelBackgroundColor=none;labelBorderColor=none;fontStyle=2" parent="LNFYNFp6tIIB9ON7b7Gi-39" vertex="1" connectable="0">
          <mxGeometry x="-0.0304" y="2" relative="1" as="geometry">
            <mxPoint x="32" as="offset" />
          </mxGeometry>
        </mxCell>
        <mxCell id="LNFYNFp6tIIB9ON7b7Gi-41" value="&lt;b&gt;www.domain.com&lt;/b&gt;" style="sketch=0;outlineConnect=0;fontColor=#232F3E;gradientColor=none;fillColor=#7AA116;strokeColor=none;dashed=0;verticalLabelPosition=bottom;verticalAlign=top;align=center;html=1;fontSize=12;fontStyle=2;aspect=fixed;pointerEvents=1;shape=mxgraph.aws4.bucket;" parent="1" vertex="1">
          <mxGeometry x="1116.3" y="540" width="76.93" height="80" as="geometry" />
        </mxCell>
        <mxCell id="LNFYNFp6tIIB9ON7b7Gi-42" style="edgeStyle=orthogonalEdgeStyle;rounded=0;orthogonalLoop=1;jettySize=auto;html=1;" parent="1" source="LNFYNFp6tIIB9ON7b7Gi-43" target="LNFYNFp6tIIB9ON7b7Gi-50" edge="1">
          <mxGeometry relative="1" as="geometry" />
        </mxCell>
        <mxCell id="LNFYNFp6tIIB9ON7b7Gi-43" value="&lt;b&gt;Hosted zone&lt;/b&gt;" style="sketch=0;points=[[0,0,0],[0.25,0,0],[0.5,0,0],[0.75,0,0],[1,0,0],[0,1,0],[0.25,1,0],[0.5,1,0],[0.75,1,0],[1,1,0],[0,0.25,0],[0,0.5,0],[0,0.75,0],[1,0.25,0],[1,0.5,0],[1,0.75,0]];outlineConnect=0;fontColor=#232F3E;fillColor=#8C4FFF;strokeColor=#ffffff;dashed=0;verticalLabelPosition=bottom;verticalAlign=top;align=center;html=1;fontSize=12;fontStyle=0;aspect=fixed;shape=mxgraph.aws4.resourceIcon;resIcon=mxgraph.aws4.route_53;" parent="1" vertex="1">
          <mxGeometry x="726" y="541" width="78" height="78" as="geometry" />
        </mxCell>
        <mxCell id="LNFYNFp6tIIB9ON7b7Gi-44" value="&lt;b&gt;User&lt;/b&gt;" style="sketch=0;verticalLabelPosition=bottom;sketch=0;aspect=fixed;html=1;verticalAlign=top;strokeColor=none;fillColor=#000000;align=center;outlineConnect=0;pointerEvents=1;shape=mxgraph.citrix2.desktop;fontColor=#232F3E;" parent="1" vertex="1">
          <mxGeometry x="490" y="550.7" width="90.53" height="70" as="geometry" />
        </mxCell>
        <mxCell id="LNFYNFp6tIIB9ON7b7Gi-45" style="edgeStyle=orthogonalEdgeStyle;rounded=0;orthogonalLoop=1;jettySize=auto;html=1;" parent="1" source="LNFYNFp6tIIB9ON7b7Gi-46" target="LNFYNFp6tIIB9ON7b7Gi-43" edge="1">
          <mxGeometry relative="1" as="geometry" />
        </mxCell>
        <mxCell id="LNFYNFp6tIIB9ON7b7Gi-46" value="&lt;b&gt;Existing domain&lt;/b&gt;" style="image;sketch=0;aspect=fixed;html=1;points=[];align=center;fontSize=12;image=img/lib/mscae/CustomDomain.svg;labelBackgroundColor=none;fontColor=#232F3E;" parent="1" vertex="1">
          <mxGeometry x="610" y="550.7" width="69.76" height="58.6" as="geometry" />
        </mxCell>
        <mxCell id="LNFYNFp6tIIB9ON7b7Gi-47" style="edgeStyle=orthogonalEdgeStyle;rounded=0;orthogonalLoop=1;jettySize=auto;html=1;entryX=0.009;entryY=0.565;entryDx=0;entryDy=0;entryPerimeter=0;" parent="1" source="LNFYNFp6tIIB9ON7b7Gi-44" target="LNFYNFp6tIIB9ON7b7Gi-46" edge="1">
          <mxGeometry relative="1" as="geometry">
            <mxPoint x="486.26" y="575" as="sourcePoint" />
            <mxPoint x="553.26" y="575" as="targetPoint" />
            <Array as="points" />
          </mxGeometry>
        </mxCell>
        <mxCell id="LNFYNFp6tIIB9ON7b7Gi-48" style="edgeStyle=orthogonalEdgeStyle;rounded=0;orthogonalLoop=1;jettySize=auto;html=1;" parent="1" target="LNFYNFp6tIIB9ON7b7Gi-41" edge="1">
          <mxGeometry relative="1" as="geometry">
            <mxPoint x="1076.26" y="580" as="sourcePoint" />
          </mxGeometry>
        </mxCell>
        <mxCell id="LNFYNFp6tIIB9ON7b7Gi-49" style="edgeStyle=orthogonalEdgeStyle;rounded=0;orthogonalLoop=1;jettySize=auto;html=1;" parent="1" source="LNFYNFp6tIIB9ON7b7Gi-50" target="LNFYNFp6tIIB9ON7b7Gi-53" edge="1">
          <mxGeometry relative="1" as="geometry">
            <Array as="points">
              <mxPoint x="1076.26" y="580" />
              <mxPoint x="1076.26" y="755" />
            </Array>
          </mxGeometry>
        </mxCell>
        <mxCell id="LNFYNFp6tIIB9ON7b7Gi-50" value="&lt;b&gt;Cloudfront&amp;nbsp;&lt;/b&gt;&lt;div&gt;&lt;b&gt;distribution&lt;/b&gt;&lt;/div&gt;" style="sketch=0;points=[[0,0,0],[0.25,0,0],[0.5,0,0],[0.75,0,0],[1,0,0],[0,1,0],[0.25,1,0],[0.5,1,0],[0.75,1,0],[1,1,0],[0,0.25,0],[0,0.5,0],[0,0.75,0],[1,0.25,0],[1,0.5,0],[1,0.75,0]];outlineConnect=0;fontColor=#232F3E;fillColor=#8C4FFF;strokeColor=#ffffff;dashed=0;verticalLabelPosition=bottom;verticalAlign=top;align=center;html=1;fontSize=12;fontStyle=0;aspect=fixed;shape=mxgraph.aws4.resourceIcon;resIcon=mxgraph.aws4.cloudfront;fillOpacity=100;shadow=0;" parent="1" vertex="1">
          <mxGeometry x="956.26" y="542" width="78" height="78" as="geometry" />
        </mxCell>
        <mxCell id="LNFYNFp6tIIB9ON7b7Gi-52" value="&lt;b&gt;SSL Certificates&lt;/b&gt;" style="sketch=0;points=[[0,0,0],[0.25,0,0],[0.5,0,0],[0.75,0,0],[1,0,0],[0,1,0],[0.25,1,0],[0.5,1,0],[0.75,1,0],[1,1,0],[0,0.25,0],[0,0.5,0],[0,0.75,0],[1,0.25,0],[1,0.5,0],[1,0.75,0]];outlineConnect=0;fontColor=#232F3E;fillColor=#DD344C;strokeColor=#ffffff;dashed=0;verticalLabelPosition=bottom;verticalAlign=top;align=center;html=1;fontSize=12;fontStyle=0;aspect=fixed;shape=mxgraph.aws4.resourceIcon;resIcon=mxgraph.aws4.certificate_manager_3;fillOpacity=100;shadow=0;" parent="1" vertex="1">
          <mxGeometry x="860" y="627" width="78" height="78" as="geometry" />
        </mxCell>
        <mxCell id="LNFYNFp6tIIB9ON7b7Gi-53" value="&lt;div&gt;&lt;b&gt;&lt;br&gt;&lt;/b&gt;&lt;b&gt;domain.com&lt;/b&gt;&lt;b&gt;&lt;/b&gt;&lt;/div&gt;" style="sketch=0;outlineConnect=0;fontColor=#232F3E;gradientColor=none;fillColor=#7AA116;strokeColor=none;dashed=0;verticalLabelPosition=top;verticalAlign=bottom;align=center;html=1;fontSize=12;fontStyle=2;aspect=fixed;pointerEvents=1;shape=mxgraph.aws4.bucket;labelPosition=center;" parent="1" vertex="1">
          <mxGeometry x="1116.3" y="705" width="76.93" height="80" as="geometry" />
        </mxCell>
        <mxCell id="LNFYNFp6tIIB9ON7b7Gi-54" style="edgeStyle=orthogonalEdgeStyle;rounded=0;orthogonalLoop=1;jettySize=auto;html=1;exitX=1;exitY=0.5;exitDx=0;exitDy=0;exitPerimeter=0;entryX=0;entryY=0.75;entryDx=0;entryDy=0;entryPerimeter=0;dashed=1;dashPattern=8 8;endArrow=none;endFill=0;startFill=0;fillColor=#f8cecc;strokeColor=#b85450;" parent="1" source="LNFYNFp6tIIB9ON7b7Gi-52" target="LNFYNFp6tIIB9ON7b7Gi-50" edge="1">
          <mxGeometry relative="1" as="geometry">
            <Array as="points">
              <mxPoint x="948" y="671" />
              <mxPoint x="948" y="601" />
            </Array>
          </mxGeometry>
        </mxCell>
        <mxCell id="EFBNCeIr_CWc5e86Vw2h-1" style="edgeStyle=orthogonalEdgeStyle;rounded=0;orthogonalLoop=1;jettySize=auto;html=1;exitX=0.5;exitY=1;exitDx=0;exitDy=0;" edge="1" parent="1" source="LNFYNFp6tIIB9ON7b7Gi-67" target="LNFYNFp6tIIB9ON7b7Gi-67">
          <mxGeometry relative="1" as="geometry" />
        </mxCell>
        <mxCell id="EFBNCeIr_CWc5e86Vw2h-10" style="edgeStyle=orthogonalEdgeStyle;rounded=0;orthogonalLoop=1;jettySize=auto;html=1;" edge="1" parent="1" source="EFBNCeIr_CWc5e86Vw2h-9" target="LNFYNFp6tIIB9ON7b7Gi-57">
          <mxGeometry relative="1" as="geometry">
            <Array as="points">
              <mxPoint x="1435" y="800" />
            </Array>
          </mxGeometry>
        </mxCell>
        <mxCell id="EFBNCeIr_CWc5e86Vw2h-12" value="&lt;i&gt;Push changes&lt;/i&gt;" style="edgeLabel;html=1;align=center;verticalAlign=middle;resizable=0;points=[];fontColor=#808080;labelBackgroundColor=default;" vertex="1" connectable="0" parent="EFBNCeIr_CWc5e86Vw2h-10">
          <mxGeometry x="0.6248" y="-3" relative="1" as="geometry">
            <mxPoint x="29" y="3" as="offset" />
          </mxGeometry>
        </mxCell>
        <mxCell id="EFBNCeIr_CWc5e86Vw2h-9" value="&lt;b style=&quot;background-color: light-dark(rgb(255, 255, 255), rgb(255, 255, 255));&quot;&gt;Developer&lt;/b&gt;" style="verticalLabelPosition=bottom;html=1;verticalAlign=top;align=center;strokeColor=none;fillColor=#000000;shape=mxgraph.azure.laptop;pointerEvents=1;" vertex="1" parent="1">
          <mxGeometry x="1390" y="650" width="90" height="60" as="geometry" />
        </mxCell>
        <mxCell id="EFBNCeIr_CWc5e86Vw2h-11" style="edgeStyle=orthogonalEdgeStyle;rounded=0;orthogonalLoop=1;jettySize=auto;html=1;entryX=0.992;entryY=0.148;entryDx=0;entryDy=0;entryPerimeter=0;" edge="1" parent="1" source="EFBNCeIr_CWc5e86Vw2h-9" target="EFBNCeIr_CWc5e86Vw2h-2">
          <mxGeometry relative="1" as="geometry">
            <Array as="points">
              <mxPoint x="1430" y="560" />
            </Array>
          </mxGeometry>
        </mxCell>
        <mxCell id="EFBNCeIr_CWc5e86Vw2h-13" value="Development&amp;nbsp;&lt;div&gt;access&lt;/div&gt;" style="edgeLabel;html=1;align=center;verticalAlign=middle;resizable=0;points=[];labelBackgroundColor=default;" vertex="1" connectable="0" parent="EFBNCeIr_CWc5e86Vw2h-11">
          <mxGeometry x="-0.0488" relative="1" as="geometry">
            <mxPoint x="-48" as="offset" />
          </mxGeometry>
        </mxCell>
      </root>
    </mxGraphModel>
  </diagram>
</mxfile>
